<svg width="368" height="118" viewBox="0 0 368 118" fill="none" xmlns="http://www.w3.org/2000/svg">
<path d="M105.281 45.613C108.577 42.3837 108.577 37.0689 105.281 33.7724L80.792 9.28392C77.5628 5.98739 72.248 5.98739 68.9514 9.28392L33.6315 44.6038V23.6137C33.6315 18.9717 29.8641 15.2042 25.222 15.2042C20.58 15.2042 16.8125 18.9717 16.8125 23.6137V89.3424C16.8125 93.9845 20.58 97.7519 25.222 97.7519C29.8641 97.7519 33.6315 93.9845 33.6315 89.3424V68.3523L68.9514 103.672C72.1134 106.969 77.4955 106.969 80.792 103.672L105.281 79.1837C108.577 75.9545 108.51 70.6397 105.281 67.3432C102.051 64.0466 96.7364 64.0466 93.4399 67.3432L74.8045 85.9786L45.4048 56.6463L74.8045 27.1121L93.4399 45.613C96.6692 48.9095 101.984 48.9095 105.281 45.613Z" fill="white"/>
<path d="M66.4062 56.7142C66.4062 61.3562 70.1737 65.1237 74.8158 65.1237C79.4578 65.1237 83.2253 61.3562 83.2253 56.7142C83.2253 52.0721 79.4578 48.3047 74.8158 48.3047C70.1737 48.3047 66.4062 52.0721 66.4062 56.7142Z" fill="white"/>
<path d="M285.522 52.1392C286.531 51.1301 287.339 50.0537 287.877 48.8427C288.415 47.6317 288.819 46.4207 289.088 45.0752C289.357 43.7297 289.559 42.3169 289.559 40.7696V30.8127C289.559 29.2653 289.357 27.8525 289.088 26.507C288.819 25.1615 288.415 23.8833 287.877 22.7396C287.339 21.5286 286.531 20.4522 285.522 19.443C284.11 18.0302 282.495 16.8866 280.678 16.1465C278.862 15.4065 276.844 14.9355 274.489 14.9355C272.134 14.9355 270.116 15.4065 268.3 16.1465C266.483 16.8866 264.869 17.963 263.456 19.443C262.447 20.4522 261.639 21.5286 261.101 22.7396C260.563 23.9505 260.159 25.1615 259.89 26.507C259.621 27.8525 259.554 29.2653 259.419 30.8127C259.285 32.36 259.419 34.0419 259.419 35.7911C259.419 37.5403 259.419 39.1549 259.419 40.7696C259.486 42.3169 259.621 43.7297 259.89 45.0752C260.159 46.4207 260.428 47.699 261.101 48.8427C261.707 49.9864 262.447 51.1301 263.456 52.1392C264.465 53.1483 266.483 54.6957 268.3 55.4357C270.116 56.1758 272.134 56.6467 274.489 56.6467C276.844 56.6467 278.862 56.1758 280.678 55.4357C282.428 54.6957 284.11 53.6193 285.522 52.1392ZM277.516 48.8427C276.709 49.3136 275.7 49.3809 274.556 49.3809C273.413 49.3809 272.471 49.1791 271.596 48.8427C270.654 48.3717 270.049 47.9008 269.376 47.2953C268.905 46.8244 268.703 46.3535 268.434 45.8825C268.165 45.3443 267.963 44.6716 267.896 43.8642C267.694 43.0569 267.627 42.0478 267.56 40.635V30.9472C267.56 29.669 267.761 28.5926 267.896 27.718C268.031 26.8434 268.232 26.1706 268.434 25.6997C268.703 25.1615 268.972 24.6906 269.376 24.2869C269.914 23.6142 270.722 23.076 271.596 22.7396C272.403 22.3359 273.413 22.2014 274.556 22.2014C275.7 22.2014 276.642 22.4032 277.516 22.7396C278.324 23.2105 279.064 23.6814 279.737 24.2869C280.207 24.7579 280.409 25.2288 280.678 25.6997C280.948 26.1706 281.149 26.9107 281.217 27.718C281.351 28.5253 281.486 29.5345 281.553 30.9472V40.635C281.553 41.9132 281.351 42.9897 281.217 43.8642C281.082 44.7388 280.88 45.4116 280.678 45.8825C280.477 46.3535 280.14 46.8917 279.737 47.2953C279.198 47.9681 278.391 48.5063 277.516 48.8427Z" fill="white"/>
<path d="M353.122 16.0789C353.122 15.608 352.786 15.4061 352.45 15.4061H345.857C345.386 15.4061 345.184 15.7425 345.184 16.0789V40.3656L329.172 15.5407C329.172 15.3389 328.97 15.3389 328.701 15.3389H322.579C322.243 15.3389 321.906 15.6752 321.906 16.0116V55.4354C321.906 55.9063 322.243 56.1081 322.579 56.1081H329.172C329.643 56.1081 329.845 55.7718 329.845 55.4354V31.0815L345.924 55.9736C345.924 56.1754 346.126 56.1754 346.395 56.1754H352.517C352.988 56.1754 353.19 55.839 353.19 55.5027V16.0789H353.122Z" fill="white"/>
<path d="M308.266 15.4062H301.673C301.202 15.4062 301 15.7426 301 16.079V55.5028C301 55.9737 301.336 56.1755 301.673 56.1755H308.266C308.737 56.1755 308.939 55.8392 308.939 55.5028V16.079C308.939 15.6081 308.602 15.4062 308.266 15.4062Z" fill="white"/>
<path d="M230.614 27.7176C231.152 24.152 233.91 22.1337 237.342 22.1337C240.773 22.1337 241.647 22.941 242.925 24.892C243.464 25.6993 243.935 26.6412 244.204 27.7176C244.204 27.7176 244.271 27.9194 244.473 27.9194H252.277C252.344 27.9194 252.479 27.8522 252.479 27.7176C251.671 22.941 249.115 18.6354 244.54 16.5498C242.455 15.5407 240.1 15.0024 237.476 15.0024C233.103 15.0024 229.403 16.5498 226.443 19.4427C224.761 21.1246 223.617 23.2101 223.079 25.5648C222.608 27.8522 222.406 31.2832 222.406 35.7235C222.406 40.1637 222.675 43.5275 223.079 45.8821C223.55 48.2368 224.626 50.3224 226.443 52.0043C229.47 55.0317 233.103 56.4445 237.476 56.4445C241.849 56.4445 242.455 55.9063 244.54 54.8971C249.115 52.8116 251.604 48.4386 252.479 43.7293C252.479 43.7293 252.479 43.5275 252.277 43.5275H244.54C244.338 43.5275 244.338 43.5275 244.271 43.7293C244.002 44.8057 243.598 45.8149 242.993 46.5549C241.714 48.3714 239.629 49.246 237.409 49.3132C233.978 49.3132 231.287 47.2277 230.681 43.7293C230.479 42.922 230.412 41.9129 230.345 40.5001C230.21 39.3564 230.21 37.7417 230.21 35.7907C230.21 33.8397 230.21 32.1578 230.278 30.9469C230.278 29.6686 230.479 28.5922 230.614 27.7176Z" fill="white"/>
<path d="M159.032 31.6871L172.084 16.079C172.353 15.7426 172.286 15.5408 171.815 15.5408H163.069C162.934 15.5408 162.867 15.5408 162.8 15.6081L148.47 32.7635V16.2808V16.079C148.47 15.6081 148.133 15.4062 147.797 15.4062H141.204C140.733 15.4062 140.531 15.7426 140.531 16.079V55.5028C140.531 55.9737 140.868 56.1755 141.204 56.1755H147.797C148.268 56.1755 148.47 55.8392 148.47 55.5028V43.9313L153.785 37.6073L164.616 56.041C164.616 56.2428 164.885 56.2428 165.087 56.2428H173.026C173.362 56.2428 173.497 55.9737 173.295 55.7046L159.099 31.6871H159.032Z" fill="white"/>
<path d="M210.842 15.2715H204.249C203.778 15.2715 203.576 15.6079 203.576 15.9442V41.8455C203.442 46.0166 200.078 49.3804 196.378 49.3804C192.677 49.3804 189.314 45.9494 189.314 41.9128V16.0115C189.314 15.5406 188.977 15.3388 188.641 15.3388H182.048C181.577 15.3388 181.375 15.6751 181.375 16.0115V41.711C181.375 50.726 188.103 56.4444 196.445 56.4444C204.787 56.4444 211.515 50.726 211.515 41.711V15.9442C211.515 15.4733 211.178 15.2715 210.842 15.2715Z" fill="white"/>
<path d="M161.735 90.7556L156.824 73.3984H153.864L148.953 90.7556L144.715 73.3984H140.812L147.136 97.6851H150.366L155.277 80.6642L160.255 97.6851H163.485H163.552L169.876 73.3984H165.974L161.735 90.7556Z" fill="white"/>
<path d="M214.281 97.6851H229.822V94.3886H217.981V87.0555H228.073V83.7589H217.981V76.695H229.822V73.3984H214.281V97.6851Z" fill="white"/>
<path d="M349.165 85.2388C351.049 84.297 352.193 84.0951 352.193 80.0586C352.193 76.022 349.031 73.2637 345.129 73.2637C341.227 73.2637 338.199 75.7529 337.997 79.8567H341.496C341.63 77.7039 343.178 76.3584 345.129 76.3584C347.08 76.3584 348.694 77.9057 348.694 80.1258C348.694 82.3459 347.551 83.826 344.994 83.826H344.389V86.8534H344.994C347.685 86.8534 349.031 88.2662 349.031 90.8227C349.031 93.3792 347.08 94.8593 345.061 94.8593C343.043 94.8593 341.227 93.7829 341.092 91.1591H337.594C337.728 95.8684 341.159 97.954 345.061 97.954C345.061 98.0213 345.061 98.0213 345.061 98.0213C349.165 98.0213 352.529 95.5993 352.529 90.9573C352.529 86.3152 351.184 86.1807 349.098 85.2388H349.165Z" fill="white"/>
<path d="M289.358 85.2385C290.973 84.5658 292.655 82.682 292.655 80.0583C292.655 76.2908 290.233 73.8016 286.331 73.4652V71.8506H283.573V73.3979H279.603V71.8506H276.845V73.3979H274.625V76.4926H275.971V94.6572H274.625V97.7519H276.912V99.2992H279.671V97.7519H283.64V99.2992H286.398V97.7519C290.368 97.55 293.126 95.1954 293.126 90.8897H292.991C292.991 87.795 291.242 85.9786 289.358 85.2385ZM279.469 76.7617H284.918C287.273 76.7617 288.888 77.9727 288.888 80.1928C288.888 82.4129 287.273 83.6912 284.918 83.6912H279.469V76.7617ZM285.255 94.3881H279.469V86.9877H285.255C287.811 86.9877 289.224 88.535 289.224 90.6879C289.224 92.8407 287.811 94.3881 285.255 94.3881Z" fill="white"/>
</svg>
